PathFileType	4	(X/Y/Z)	C:/Users/beibeiliu/ov580/test_trc/User1\sequence.14_training_dense_right.trc
DataRate	CameraRate	NumFrames	NumMarkers	Units	OrigDataRate	OrigDataStartFrame	OrigNumFrames
120	120	18	19	mm	120	101	267
Frame#	Time	ThumbCMC			ThumbMCP			ThumbIP			ThumbTip			IndexMCP			IndexPIP			IndexTip			MiddleMCP			MiddlePIP			MiddleTip			RingMCP			RingPIP			RingTip			PinkyMCP			PinkyPIP			PinkyTip			BackHand1			BackHand2			BackHand3	
		X0	Y0	Z0	X1	Y1	Z1	X2	Y2	Z2	X3	Y3	Z3	X4	Y4	Z4	X5	Y5	Z5	X6	Y6	Z6	X7	Y7	Z7	X8	Y8	Z8	X9	Y9	Z9	X10	Y10	Z10	X11	Y11	Z11	X12	Y12	Z12	X13	Y13	Z13	X14	Y14	Z14	X15	Y15	Z15	X16	Y16	Z16	X17	Y17	Z17	X18	Y18	Z18	
100	0.833333	120.474	62.3416	35.8055	113.119	50.0771	0.660035	116.253	46.6975	-27.0069	127.478	43.0304	-51.5888	154.738	94.3333	-32.8017	151.321	74.9915	-60.3911	148.214	44.6187	-61.4044	184.925	99.2341	-29.6141	187.972	92.7436	-62.9241	182.235	72.1305	-86.8783	206.184	87.2433	-17.0532	211.95	86.5217	-50.8554	206.905	67.2523	-77.0866	216.748	61.9259	-2.46868	222.673	63.1471	-27.3962	221.753	56.451	-56.1146	187.561	75.408	36.3931	184.742	64.8291	67.9104	155.803	86.6343	46.8515	
101	0.841667	118.377	61.9441	32.4883	116.951	48.9031	-0.615477	116.79	47.2399	-31.165	121.668	39.6412	-51.5944	149.427	93.846	-35.2733	149.579	75.3477	-59.7533	146.363	40.2219	-61.7822	183.364	99.9413	-31.423	184.107	94.3446	-61.1594	179.906	69.8959	-89.8106	201.824	89.5417	-19.0562	209.753	86.8882	-50.627	205.487	70.3737	-76.1218	213.378	62.9067	-2.50787	221.879	62.7842	-29.4839	220.938	59.529	-57.0363	187.586	73.0616	38.797	179.78	63.681	68.1854	155.741	84.5545	46.3657	
102	0.85	120.6	58.7726	34.463	113.64	46.18	0.207883	115.614	44.7277	-31.0026	123.451	37.3469	-49.6797	150.102	92.4637	-32.6999	151.26	73.8784	-59.1857	147.348	40.1141	-62.352	181.664	99.5466	-29.1337	184.797	92.9755	-63.6724	182.224	66.8907	-90.3222	202.321	87.8379	-16.9455	208.477	88.7023	-49.5622	206.013	72.6291	-75.255	215.141	65.0529	-5.384	222.715	63.8062	-28.4852	222.255	59.5516	-55.2478	186.931	77.2663	34.531	180.878	64.3633	69.8346	154.636	83.2979	46.856	
103	0.858333	116.108	56.6946	35.3704	114.086	44.6149	0.978692	117.387	43.5016	-27.4933	124.66	38.5553	-54.5425	151.051	90.3479	-35.2338	147.607	70.3259	-60.7924	143.158	38.2776	-62.8992	182.078	97.9795	-28.9175	181.016	93.2424	-63.6991	178.158	70.8591	-88.429	200.551	90.2271	-19.3331	208.388	88.8804	-48.2703	206.876	72.8008	-73.8117	216.812	64.8285	-5.01541	222.128	66.245	-27.0261	222.153	62.6371	-54.9427	187.769	76.0405	36.263	178.596	65.4724	68.9655	148.711	83.7846	46.958	
104	0.866667	119.546	54.4803	36.657	110.589	44.0235	-1.07149	117.601	43.1243	-28.319	124.246	36.7552	-50.5459	145.195	91.8385	-33.1151	145.873	71.2424	-61.6232	146.789	38.5283	-62.0986	176.866	100.993	-31.2097	183.11	93.5196	-62.1159	181.794	70.2499	-87.4719	201.214	89.6187	-18.1375	205.993	90.2324	-50.8518	208.019	70.5834	-74.2282	214.562	65.1913	-1.90963	223.291	65.2082	-26.8937	220.307	62.1326	-58.2009	184.846	75.3549	39.6291	178.451	63.1057	69.8907	151.366	79.8227	47.5359	
105	0.875	117.454	55.5184	34.8884	110.231	42.5487	-0.944078	114.114	41.4683	-30.9838	124.089	36.4164	-53.5362	145.763	91.348	-35.5469	146.815	73.4084	-60.9151	146.264	42.2891	-64.8748	177.878	99.7602	-30.2865	183.032	95.2066	-59.8139	181.559	71.3856	-88.0686	198.518	91.4972	-20.7305	204.73	90.5258	-51.5335	205.735	75.0244	-73.2796	213.921	65.9115	-2.96934	221.281	65.9331	-30.2508	221.212	61.8427	-55.4505	184.015	76.2838	35.9263	175.45	65.8512	68.2344	147.314	81.6498	43.8443	
106	0.883333	112.961	54.3315	34.1127	108.012	41.7766	-0.0480438	112.681	41.3157	-30.3672	119.922	34.239	-50.746	149.452	90.4021	-35.3386	152.025	75.9891	-60.7569	149.861	42.3468	-69.4497	180.824	98.4936	-30.987	185.424	94.3683	-63.2508	184.384	70.278	-91.5805	198.662	91.0209	-19.6621	206.454	90.3954	-48.6688	205.79	75.5139	-73.0115	214.704	63.5972	-1.33414	224.972	62.7259	-29.6762	225.776	59.1431	-53.3261	187.67	76.3632	36.6927	179.116	64.2587	69.1404	148.486	82.2218	43.0089	
107	0.891667	113.393	53.4472	33.6207	111.896	41.7544	-0.626413	112.273	40.6776	-30.7391	115.663	33.159	-54.029	147.548	92.8937	-35.3815	148.617	78.9024	-65.7859	150.216	45.5544	-76.2397	179.782	99.8942	-32.8444	184.445	95.0928	-63.1935	189.482	73.5984	-88.1712	198.851	89.2732	-19.3643	211.687	88.1	-51.1318	208.306	74.3267	-74.0583	216.41	63.7323	-4.55889	224.382	64.5768	-25.9621	223.468	60.6616	-55.891	186.876	74.4468	35.6393	176.426	66.6856	65.1377	147.703	80.692	43.637	
108	0.9	116.151	53.5949	33.5823	108.002	42.0813	-3.10713	105.873	37.8935	-30.636	113.75	31.8844	-53.7136	149.319	93.2871	-34.3116	152.418	81.1359	-67.7208	152.127	52.7353	-82.3847	178.373	97.4133	-28.4133	190.012	94.3808	-61.7146	188.882	74.7307	-90.0707	201.324	88.5614	-21.9354	213.017	87.0767	-50.5996	213.423	70.9938	-76.8224	216.875	63.4223	-7.05502	223.393	63.4456	-26.5089	227.37	58.6058	-55.7728	186.752	72.3017	35.6299	174.404	66.8941	64.7397	148.171	82.0311	42.991	
109	0.908333	113.012	54.2644	32.2509	107.643	41.1591	0.607793	106.56	37.7613	-31.5027	112.082	30.7367	-53.8822	147.409	93.4166	-33.0248	152.646	86.3902	-63.8833	155.973	59.7466	-87.0492	183.331	96.9015	-32.4344	185.961	94.9872	-63.0641	193.117	75.9687	-89.958	203.569	85.8362	-20.2764	213.101	86.4567	-47.9843	213.531	71.6901	-74.8171	214.554	64.1282	-5.40244	225.671	61.3707	-28.6083	225.806	57.2411	-55.1833	184.567	72.6962	34.7268	177.219	65.8185	65.6893	148.015	78.078	42.6723	
110	0.916667	113.485	55.5679	28.6403	107.049	39.7351	-1.95978	102.813	35.8982	-28.7914	107.384	29.1514	-55.8476	152.827	92.8495	-32.8384	156.305	86.1501	-66.4568	157.023	67.0463	-88.389	179.199	97.3781	-29.886	190.197	93.4767	-65.7227	194.346	76.6303	-92.8792	202.196	84.7505	-18.369	210.654	86.7843	-53.0397	212.565	72.727	-73.6628	216.502	62.8093	-4.6785	223.902	62.0273	-27.641	231.461	56.7674	-54.6663	185.648	71.5755	35.5582	175.095	62.5856	66.4259	148.355	81.0718	40.6556	
111	0.925	117.393	54.2902	29.3906	109.425	39.0306	-0.429327	104.096	35.3882	-27.2462	108.208	28.1432	-52.6857	152.658	93.9706	-34.5025	156.342	88.6889	-66.5555	157.76	69.5724	-89.2446	182.898	96.8165	-30.0313	188.26	96.4214	-62.1378	194.287	77.3379	-95.1001	204.522	84.9956	-19.1084	211.422	86.3716	-50.656	215.04	70.8907	-76.9967	214.275	61.9007	-3.2471	226.141	60.9214	-26.9686	231.945	57.3952	-51.9566	183.072	75.132	31.6195	178.784	64.3129	65.1404	147.213	79.9159	43.8131	
112	0.933333	116.493	54.943	29.457	112.723	40.7448	-2.86973	107.556	35.575	-28.1408	110.271	27.7089	-54.7174	149.874	93.6346	-34.0487	157.525	87.3932	-66.7204	159.718	68.5744	-85.2518	181.106	98.2732	-34.1713	191.112	96.2392	-60.9055	192.214	79.7373	-93.3871	201.938	87.6279	-20.8731	212.495	87.011	-51.788	216.013	70.4648	-77.5519	216.81	61.1378	-3.18167	229.815	60.0697	-27.0016	231.147	56.3927	-53.6936	186.746	76.1011	32.8889	177.579	65.7106	64.6848	148.42	79.2022	40.8687	
113	0.941667	114.042	53.1174	31.6537	108.804	37.1133	-0.78761	109.605	35.9619	-31.7603	113.292	26.8315	-53.4221	151.57	92.2504	-34.3548	152.473	83.8387	-64.2484	157.539	53.4247	-83.1692	184.149	95.612	-29.5235	191.661	93.1578	-65.1256	192.147	78.8104	-89.4346	200.592	86.9166	-20.7401	214.948	86.3601	-49.6438	214.462	72.1929	-77.7869	217.948	62.0409	-5.59345	225.592	62.0656	-29.2424	231.373	57.771	-51.7192	184.976	74.6214	32.1154	174.726	62.8626	66.613	146.973	77.9522	43.3607	
114	0.95	116.502	51.9139	30.0681	113.681	36.8889	-0.230537	116.309	34.5379	-27.3417	121.52	29.4566	-54.8642	148.608	88.4339	-36.1725	152.1	72.6187	-64.9611	153.787	41.1505	-73.4799	183.748	96.543	-31.4348	185.468	93.5356	-61.8798	187.728	75.6215	-89.9187	199.271	88.1187	-20.6053	212.083	86.9671	-52.1425	214.474	73.9703	-73.2616	217.937	62.0358	-2.80262	226.465	61.2775	-28.5104	230.131	57.4091	-51.3443	185.36	73.1672	37.7553	174.971	66.8863	64.1183	145.741	77.3067	44.2304	
115	0.958333	115.709	50.1705	33.4924	112.502	36.353	-1.82193	115.417	34.1659	-29.3236	125.94	29.0232	-52.9711	150.356	87.1059	-35.2665	150.088	67.1197	-64.3447	146.287	32.9682	-66.8704	179.272	97.0334	-32.0179	186.558	90.5959	-67.044	183.753	70.9214	-94.5122	201.52	85.3025	-17.5356	208.307	88.2259	-50.4276	212.68	73.0584	-74.9484	214.906	63.4674	-5.74741	222.746	62.0555	-29.8293	225.3	59.9019	-53.7489	184.243	72.913	36.9052	175.143	64.2266	65.8493	150.006	80.7027	43.7057	
116	0.966667	120.438	52.5534	31.3383	114.964	37.108	-3.50105	115.979	34.254	-32.4959	123.98	27.9631	-52.4166	149.625	86.0251	-36.4634	147.845	63.4009	-64.793	149.317	28.9454	-61.3802	177.653	96.8188	-34.6666	185.586	88.2882	-67.3237	185.781	68.2174	-92.425	200.518	87.1264	-22.5622	210.101	87.0961	-51.1815	210.592	72.7505	-74.4799	214.018	64.5955	-6.75359	223.563	62.8501	-25.6739	223.389	59.4764	-55.3819	184.492	75.392	32.5817	174.828	65.3466	68.3617	146.957	80.534	45.5522	
117	0.975	121.018	51.234	31.3105	113.475	35.7321	-2.11455	120.742	34.4033	-29.7379	124.499	27.0702	-56.1837	145.976	84.5803	-40.0166	147.355	62.9975	-63.0578	148.526	28.9014	-60.6532	178.11	95.1414	-34.0097	181.573	90.2281	-62.802	184.082	66.6741	-91.6932	202.314	85.9585	-20.8291	208.635	85.8155	-50.6948	208.566	71.5697	-78.6379	217.769	62.8228	-7.32895	224.156	62.5908	-25.6543	225.022	58.8212	-56.2819	183.815	75.0512	33.0556	178.81	62.1369	67.1663	149.155	80.4552	40.7697	
